<mxfile host="app.diagrams.net" modified="2024-05-27T02:16:57.220Z" agent="Mozilla/5.0 (Windows NT 10.0; Win64; x64) AppleWebKit/537.36 (KHTML, like Gecko) Chrome/125.0.0.0 Safari/537.36 Edg/125.0.0.0" version="24.4.8" etag="4aCHhhtj3eA6mVqJAlT0" type="github">
  <diagram name="第 1 页" id="eFLuMQlo_UWvrFtFQ13B">
    <mxGraphModel>
      <root>
        <mxCell id="0" />
        <mxCell id="1" parent="0" />
      </root>
    </mxGraphModel>
  </diagram>
</mxfile>
